<svg width="24" height="24" viewBox="0 0 24 24" fill="none" xmlns="http://www.w3.org/2000/svg">
<path d="M20.2782 4.75702C20.1988 4.51574 20.0644 4.29621 19.8857 4.11574C19.707 3.93526 19.4887 3.79877 19.2482 3.71702C17.0843 2.98404 14.7585 2.87092 12.5337 3.39044C10.3089 3.90996 8.27368 5.04142 6.65816 6.65694C5.04264 8.27246 3.91119 10.3076 3.39166 12.5325C2.87214 14.7573 2.98526 17.0831 3.71824 19.247C3.79999 19.4875 3.93648 19.7057 4.11696 19.8845C4.29743 20.0632 4.51697 20.1976 4.75824 20.277C6.03001 20.7113 7.36436 20.9343 8.70824 20.937C10.6506 20.9292 12.5634 20.4601 14.2889 19.5683C16.0145 18.6765 17.5035 17.3875 18.6333 15.8075C19.7631 14.2275 20.5015 12.4017 20.7874 10.4805C21.0734 8.55926 20.8989 6.59758 20.2782 4.75702ZM5.07824 19.337C4.98271 19.3004 4.89595 19.244 4.82359 19.1717C4.75124 19.0993 4.6949 19.0126 4.65824 18.917C4.19647 17.5467 3.99964 16.101 4.07824 14.657L9.33824 19.917C7.89431 19.9956 6.4486 19.7988 5.07824 19.337ZM16.6382 16.627C15.0021 18.2732 12.895 19.3704 10.6082 19.767L4.22824 13.387C4.62043 11.1016 5.71848 8.99646 7.36824 7.36702C9.00301 5.71719 11.1102 4.61639 13.3982 4.21702L19.7782 10.597C19.3785 12.8827 18.2817 14.9889 16.6382 16.627ZM19.9282 9.32702L14.6682 4.06702C14.8782 4.06702 15.0782 4.05702 15.2882 4.05702C16.5236 4.05877 17.7502 4.26488 18.9182 4.66702C19.0144 4.69966 19.1021 4.75342 19.1748 4.82437C19.2474 4.89532 19.3033 4.98165 19.3382 5.07702C19.7998 6.44413 19.9999 7.88588 19.9282 9.32702Z" fill="currentColor"/>
<path d="M10.4002 15.257C10.4925 15.3512 10.6183 15.4051 10.7502 15.407C10.8172 15.4074 10.8836 15.3943 10.9454 15.3686C11.0073 15.3428 11.0633 15.3049 11.1102 15.257C11.2018 15.1635 11.2531 15.0379 11.2531 14.907C11.2531 14.7761 11.2018 14.6505 11.1102 14.557L10.6302 14.077L12.0002 12.707L12.4802 13.187C12.5752 13.2758 12.7001 13.3258 12.8302 13.327C12.9633 13.3263 13.0915 13.2765 13.1902 13.187C13.2817 13.0915 13.3329 12.9643 13.3329 12.832C13.3329 12.6997 13.2817 12.5725 13.1902 12.477L12.7102 11.997L14.0802 10.627L14.5602 11.107C14.6564 11.1883 14.7798 11.2303 14.9056 11.2245C15.0314 11.2188 15.1505 11.1658 15.2389 11.0761C15.3273 10.9864 15.3786 10.8666 15.3826 10.7407C15.3865 10.6148 15.3428 10.4921 15.2602 10.397L13.6002 8.73701C13.5537 8.69015 13.4984 8.65295 13.4375 8.62756C13.3765 8.60218 13.3112 8.58911 13.2452 8.58911C13.1792 8.58911 13.1138 8.60218 13.0529 8.62756C12.992 8.65295 12.9367 8.69015 12.8902 8.73701C12.7986 8.83048 12.7473 8.95613 12.7473 9.08701C12.7473 9.21789 12.7986 9.34355 12.8902 9.43701L13.3802 9.92701L12.0002 11.3L11.5202 10.82C11.4744 10.7733 11.4198 10.7361 11.3595 10.7106C11.2993 10.6851 11.2346 10.6718 11.1691 10.6715C11.1037 10.6712 11.0389 10.6838 10.9784 10.7087C10.9179 10.7336 10.8629 10.7702 10.8166 10.8165C10.7704 10.8627 10.7337 10.9177 10.7089 10.9782C10.684 11.0387 10.6713 11.1036 10.6717 11.169C10.672 11.2344 10.6853 11.2991 10.7108 11.3594C10.7363 11.4196 10.7735 11.4742 10.8202 11.52L11.3002 12L9.93018 13.38L9.44018 12.89C9.34672 12.7984 9.22106 12.7471 9.09018 12.7471C8.95931 12.7471 8.83365 12.7984 8.74018 12.89C8.69332 12.9365 8.65612 12.9918 8.63074 13.0527C8.60535 13.1137 8.59229 13.179 8.59229 13.245C8.59229 13.311 8.60535 13.3764 8.63074 13.4373C8.65612 13.4982 8.69332 13.5535 8.74018 13.6L10.4002 15.257Z" fill="currentColor"/>
</svg>
