<svg width="24" height="24" viewBox="0 0 24 24" fill="none" xmlns="http://www.w3.org/2000/svg">
<path d="M6.75 3.75C6.75 3.15666 6.57405 2.57664 6.24441 2.08329C5.91477 1.58994 5.44623 1.20543 4.89805 0.978363C4.34987 0.7513 3.74667 0.69189 3.16473 0.807646C2.58279 0.923401 2.04824 1.20912 1.62868 1.62868C1.20912 2.04824 0.923401 2.58279 0.807646 3.16473C0.69189 3.74667 0.7513 4.34987 0.978363 4.89805C1.20543 5.44623 1.58994 5.91477 2.08329 6.24441C2.57664 6.57405 3.15666 6.75 3.75 6.75C4.54538 6.74913 5.30794 6.43278 5.87036 5.87036C6.43278 5.30794 6.74913 4.54538 6.75 3.75ZM2.25 3.75C2.25 3.45333 2.33797 3.16332 2.5028 2.91665C2.66762 2.66997 2.90189 2.47771 3.17598 2.36418C3.45007 2.25065 3.75167 2.22095 4.04264 2.27882C4.33361 2.3367 4.60088 2.47956 4.81066 2.68934C5.02044 2.89912 5.1633 3.16639 5.22118 3.45737C5.27906 3.74834 5.24935 4.04994 5.13582 4.32403C5.02229 4.59812 4.83003 4.83238 4.58336 4.99721C4.33668 5.16203 4.04667 5.25 3.75 5.25C3.35231 5.24955 2.97104 5.09138 2.68983 4.81017C2.40863 4.52896 2.25045 4.14769 2.25 3.75ZM20.6555 3.34856C20.0765 2.76604 19.3883 2.30331 18.6304 1.98684C17.8725 1.67036 17.0596 1.50633 16.2383 1.50413H16.2091C14.4518 1.50413 12.7357 2.25267 11.3747 3.61383C9.98817 5.00039 8.85525 7.10738 8.34413 9.25008C8.21504 9.78431 8.12946 10.3281 8.08824 10.8762C8.0351 11.724 7.79045 12.5488 7.37269 13.2885C7.0802 13.7942 6.7226 14.2593 6.30905 14.6719L2.59256 18.4786C2.01183 19.0613 1.95 19.6605 2.00072 20.061C2.0595 20.5259 2.30658 20.9877 2.71524 21.3964C3.12389 21.8051 3.58594 22.0522 4.05075 22.1109C4.12467 22.1203 4.19909 22.125 4.2736 22.125C4.65741 22.125 5.15274 21.9994 5.63644 21.5156L9.3526 17.7094C9.79643 17.2649 10.3009 16.8854 10.8511 16.5823C11.5548 16.2034 12.3318 15.9805 13.1293 15.9287C13.6806 15.8865 14.2275 15.7993 14.7645 15.668C16.8994 15.1528 19.0025 14.0168 20.3901 12.6291C21.7588 11.2604 22.508 9.53311 22.4997 7.7655C22.4975 6.94422 22.3335 6.13142 22.017 5.37355C21.7006 4.61567 21.2379 3.92757 20.6555 3.34856ZM4.57294 20.4579C4.38806 20.6415 4.27969 20.6279 4.23881 20.6228C4.11089 20.6066 3.94219 20.502 3.77592 20.3357C3.60966 20.1695 3.50503 20.0008 3.48886 19.8728C3.48366 19.8317 3.46988 19.7228 3.65653 19.536L6.62719 16.4932L7.54641 17.4124L4.57294 20.4579ZM8.60653 16.3512L7.67035 15.4151C8.04772 14.9962 8.38054 14.5392 8.66344 14.0514C8.97053 14.5989 9.42276 15.0511 9.97031 15.3581C9.48254 15.641 9.02549 15.9738 8.60653 16.3512ZM19.3297 11.5688C18.1468 12.7515 16.2628 13.7637 14.4129 14.2102C12.5719 14.6544 11.0297 14.4766 10.2873 13.7344C8.70469 12.1516 9.86906 7.24069 12.4354 4.67438C13.6103 3.4995 14.9432 3.00994 16.1944 3.00994C17.4679 3.01059 18.6897 3.51338 19.5948 4.4092C21.2659 6.0803 21.7409 9.15741 19.3297 11.5688Z" fill="currentColor"/>
</svg>
